<?xml version="1.0" standalone="no"?>
<!DOCTYPE svg PUBLIC "-//W3C//DTD SVG 20010904//EN"
 "http://www.w3.org/TR/2001/REC-SVG-20010904/DTD/svg10.dtd">
<svg version="1.0" xmlns="http://www.w3.org/2000/svg"
 width="406.000000pt" height="406.000000pt" viewBox="0 0 406.000000 406.000000"
 preserveAspectRatio="xMidYMid meet">
<metadata>
Created by potrace 1.11, written by Peter Selinger 2001-2013
</metadata>
<g transform="translate(0.000000,406.000000) scale(0.100000,-0.100000)"
fill="#000000" stroke="none">
<path d="M1692 3993 c-36 -14 -63 -125 -63 -255 1 -49 0 -88 -2 -88 -6 0 -181
78 -207 92 -14 7 -57 33 -96 56 -76 46 -106 48 -138 13 -26 -29 -35 -127 -21
-216 14 -90 16 -87 -46 -101 -119 -27 -241 -106 -254 -163 -8 -39 17 -78 58
-87 l31 -6 -61 -57 c-77 -72 -116 -123 -153 -203 -103 -222 -93 -492 34 -892
l23 -72 -44 -49 c-73 -83 -104 -172 -98 -274 5 -75 9 -90 40 -152 63 -124 189
-202 336 -208 33 -1 37 -5 62 -59 84 -181 245 -354 418 -448 l49 -27 -51 -17
c-105 -36 -199 -168 -299 -425 -36 -91 -120 -334 -120 -347 0 -4 423 -8 940
-8 517 0 940 4 940 8 0 9 -37 125 -50 157 -4 11 -24 67 -45 125 -54 152 -146
336 -201 398 -47 53 -107 92 -143 92 -36 0 -31 18 12 40 169 88 339 269 423
451 l26 56 57 6 c81 8 95 12 160 47 127 68 195 186 195 335 0 69 -5 91 -30
145 -17 36 -49 85 -72 109 l-41 44 21 51 c106 265 123 344 122 546 0 105 -5
154 -22 220 -24 91 -80 217 -130 289 l-30 45 24 29 c52 62 2 128 -111 144 -49
6 -57 13 -73 60 -25 75 -110 168 -162 178 -28 5 -78 -23 -86 -47 -7 -23 -12
-22 -50 1 -62 38 -270 108 -519 176 -212 58 -355 139 -444 253 -27 34 -39 42
-64 41 -18 0 -38 -3 -45 -6z"/>
</g>
</svg>
